<?xml version="1.0" standalone="no"?>
<!DOCTYPE svg PUBLIC "-//W3C//DTD SVG 20010904//EN"
 "http://www.w3.org/TR/2001/REC-SVG-20010904/DTD/svg10.dtd">
<svg version="1.0" xmlns="http://www.w3.org/2000/svg"
 width="119.000000pt" height="144.000000pt" viewBox="0 0 119.000000 144.000000"
 preserveAspectRatio="xMidYMid meet">

<g transform="translate(0.000000,144.000000) scale(0.100000,-0.100000)"
fill="#000000" stroke="none">
<path d="M641 1336 l20 -34 -63 18 c-76 23 -177 40 -237 40 -43 0 -44 0 -26
-20 16 -17 39 -100 28 -100 -2 0 -13 5 -23 10 -15 8 -18 7 -14 -4 8 -20 -18
-76 -62 -135 -32 -42 -40 -48 -45 -34 -6 15 -10 11 -22 -18 -9 -19 -19 -48
-23 -63 -6 -26 -10 -28 -41 -23 -30 5 -36 2 -60 -34 -16 -24 -28 -59 -31 -89
-4 -43 1 -60 43 -145 33 -67 56 -102 77 -114 27 -17 29 -24 32 -83 2 -36 12
-83 23 -108 20 -44 21 -45 31 -20 9 24 10 24 21 -18 7 -24 28 -60 46 -80 34
-36 35 -37 41 -14 6 20 9 16 24 -28 9 -28 28 -62 41 -76 23 -25 23 -25 31 -4
7 20 9 19 39 -14 17 -19 46 -45 66 -57 35 -22 36 -22 70 -4 19 10 49 36 68 56
32 35 34 36 41 17 6 -20 7 -20 31 5 14 13 33 48 43 77 15 43 18 48 23 28 l6
-22 31 29 c17 16 36 47 42 70 14 49 28 67 28 37 0 -12 4 -22 9 -22 17 0 43 85
45 148 2 58 4 64 32 81 38 23 124 192 124 242 0 40 -29 108 -55 129 -9 8 -29
13 -44 12 -24 -3 -28 2 -45 53 -20 58 -49 97 -39 53 2 -13 -9 2 -27 32 -56 99
-170 198 -282 245 l-37 15 20 -34z m-107 -176 c19 -17 40 -48 47 -68 l12 -37
9 32 c5 18 24 49 44 68 38 38 70 49 37 13 -11 -13 -26 -33 -32 -45 -11 -21
-10 -21 21 -12 46 13 98 10 133 -6 l30 -15 -45 5 -45 5 49 -19 c57 -23 82 -43
45 -35 -18 4 -15 0 12 -15 19 -11 41 -27 48 -35 12 -14 7 -16 -40 -16 -30 0
-72 -5 -94 -10 -36 -8 -38 -7 -21 6 18 13 18 14 2 14 -9 0 -26 -5 -38 -11 -27
-15 -35 -3 -13 21 28 31 10 24 -31 -12 -34 -30 -37 -31 -32 -10 8 30 -10 28
-23 -2 l-11 -24 -23 26 -23 27 5 -30 6 -30 -22 28 c-13 15 -32 32 -42 38 -20
10 -20 10 -2 -17 18 -28 18 -28 -2 -20 -11 5 -31 11 -45 13 -24 5 -24 5 -5
-10 19 -15 17 -15 -20 -7 -22 5 -64 10 -94 10 -49 0 -52 1 -40 17 8 9 28 25
44 35 27 18 28 19 5 13 -24 -7 -24 -6 -5 8 11 8 40 22 65 31 l45 16 -50 -5
-50 -5 48 17 c39 14 57 15 97 7 28 -6 50 -7 50 -3 0 5 -14 24 -31 44 -38 43
-22 46 25 5z m-386 -222 c-3 -7 -10 -13 -18 -13 -7 0 -19 -11 -27 -25 -13 -22
-13 -23 0 -7 18 22 23 22 30 -4 3 -13 -2 -28 -14 -40 -22 -22 -25 -49 -6 -68
10 -11 10 -13 0 -7 -19 10 -16 2 12 -41 46 -71 56 -83 69 -83 8 0 16 -11 18
-25 4 -19 1 -25 -12 -25 -28 0 -56 35 -100 126 -36 75 -41 92 -35 130 7 50 38
94 67 94 11 0 18 -5 16 -12z m948 -13 c9 -13 20 -44 26 -67 8 -39 6 -49 -36
-133 -45 -91 -65 -116 -98 -128 -13 -5 -18 -1 -18 13 0 19 25 50 40 50 10 0
64 89 67 110 1 8 5 25 8 37 5 14 0 28 -14 42 -20 20 -29 61 -13 61 4 0 14 -6
21 -12 10 -11 11 -10 6 4 -4 9 -17 19 -31 22 -31 8 -31 26 1 26 15 0 31 -9 41
-25z m-667 -31 c2 -2 -5 -4 -16 -4 -32 0 -71 -37 -100 -93 l-25 -51 -18 22
c-23 28 -35 89 -20 107 16 19 87 34 135 27 22 -2 42 -6 44 -8z m382 -11 c-11
-16 -25 -48 -31 -73 -20 -78 -43 -90 -66 -35 -20 49 -18 92 5 105 17 8 77 26
104 29 4 1 -1 -11 -12 -26z m-237 -138 c16 -12 21 -12 40 0 26 19 70 19 86 0
6 -8 18 -34 25 -57 11 -36 10 -48 -3 -73 l-15 -30 23 20 c17 16 36 20 89 20
43 0 78 6 100 18 19 9 36 17 38 17 12 0 -33 -59 -56 -73 -23 -14 -24 -17 -6
-17 17 0 17 -2 5 -10 -23 -15 -52 -12 -93 9 -42 22 -44 18 -17 -26 10 -17 20
-49 22 -70 3 -33 0 -38 -20 -41 -13 -2 -48 6 -78 18 -73 30 -165 30 -238 0
-58 -23 -97 -24 -104 -1 -3 9 0 11 8 6 9 -6 9 -3 0 14 -9 19 -7 29 14 66 14
24 26 46 26 48 0 2 -18 -4 -40 -15 -31 -15 -49 -18 -78 -13 -34 7 -35 8 -12
15 25 6 25 6 3 14 -20 6 -63 55 -63 70 0 4 15 -1 33 -11 21 -12 55 -17 103
-18 53 0 75 -4 88 -18 25 -24 29 -21 11 7 -14 20 -14 31 -5 68 7 24 16 51 21
61 12 21 66 23 93 2z m250 -337 c-19 -21 -19 -21 1 -14 16 6 18 5 7 -6 -8 -8
-39 -13 -82 -13 -39 0 -70 -1 -70 -2 0 -2 20 -8 45 -14 25 -6 45 -16 45 -23
-1 -18 -27 -61 -38 -61 -5 0 -22 -15 -37 -34 -26 -30 -30 -31 -35 -15 -6 16
-9 15 -23 -12 -28 -54 -41 -59 -71 -24 -14 18 -26 37 -27 43 0 7 -4 4 -8 -7
-6 -16 -10 -14 -38 17 -17 20 -33 33 -36 30 -6 -5 -37 50 -37 65 0 5 20 15 45
21 25 6 45 13 45 15 0 2 -26 2 -58 -1 -69 -6 -97 5 -100 42 -2 24 0 25 14 11
19 -20 33 -20 109 -1 80 19 158 19 251 -2 76 -17 77 -17 93 4 9 11 18 17 20
11 1 -5 -5 -19 -15 -30z"/>
<path d="M513 703 c-7 -2 -13 -11 -13 -19 0 -9 -4 -12 -10 -9 -16 10 -12 -18
6 -44 13 -18 23 -22 45 -17 23 4 27 2 23 -12 -5 -14 -4 -15 5 -2 17 24 13 68
-9 90 -21 21 -26 22 -47 13z"/>
<path d="M630 690 c-13 -13 -20 -33 -19 -57 0 -21 3 -32 6 -26 3 8 14 11 28 7
16 -4 30 1 44 15 21 21 30 58 11 46 -5 -3 -10 0 -10 8 0 8 -7 18 -16 21 -22 8
-22 8 -44 -14z"/>
<path d="M541 506 c2 -2 36 -6 74 -8 40 -3 61 -2 50 3 -19 7 -132 13 -124 5z"/>
<path d="M795 460 c-3 -5 -1 -10 4 -10 6 0 11 5 11 10 0 6 -2 10 -4 10 -3 0
-8 -4 -11 -10z"/>
</g>
</svg>
